<?xml version="1.0" encoding="UTF-8"?>
<svg width="22px" height="22px" viewBox="0 0 22 22" version="1.1" xmlns="http://www.w3.org/2000/svg" xmlns:xlink="http://www.w3.org/1999/xlink">
    <!-- Generator: sketchtool 64 (101010) - https://sketch.com -->
    <title>085A27FF-3952-4A3B-AE8D-74938DBE9CC8</title>
    <desc>Created with sketchtool.</desc>
    <g id="Web" stroke="none" stroke-width="1" fill="none" fill-rule="evenodd">
        <g id="Create-Project" transform="translate(-19.000000, -405.000000)" fill="#035FB2" stroke="#035FB2">
            <g id="Group-7" transform="translate(0.000000, 1.000000)">
                <path d="M30,405 C30.3944891,405 30.7142857,405.319797 30.7142857,405.714286 L30.714,414.714 L39.5,414.714286 C39.7761424,414.714286 40,414.938143 40,415.214286 C40,415.490428 39.7761424,415.714286 39.5,415.714286 L30.714,415.714 L30.7142857,424.285714 C30.7142857,424.680203 30.3944891,425 30,425 C29.6055109,425 29.2857143,424.680203 29.2857143,424.285714 L29.285,415.714 L20.5,415.714286 C20.2238576,415.714286 20,415.490428 20,415.214286 C20,414.938143 20.2238576,414.714286 20.5,414.714286 L29.285,414.714 L29.2857143,405.714286 C29.2857143,405.319797 29.6055109,405 30,405 Z" id="create-project-active"></path>
            </g>
        </g>
    </g>
</svg>