<?xml version="1.0" encoding="UTF-8"?>
<svg width="25px" height="20px" viewBox="0 0 25 20" version="1.1" xmlns="http://www.w3.org/2000/svg" xmlns:xlink="http://www.w3.org/1999/xlink">
    <!-- Generator: sketchtool 64 (101010) - https://sketch.com -->
    <title>240D06EE-999C-4A05-A1B8-45DBAE71A897</title>
    <desc>Created with sketchtool.</desc>
    <g id="Web" stroke="none" stroke-width="1" fill="none" fill-rule="evenodd">
        <g id="Dashboard" transform="translate(-17.000000, -257.000000)" fill="#025AAB" fill-rule="nonzero">
            <g id="Group-7" transform="translate(0.000000, 1.000000)">
                <g id="Dashboard-active" transform="translate(17.000000, 256.000000)">
                    <path d="M21.7130643,3.28694632 C21.3801611,2.95409309 20.8576363,2.9050101 20.4684981,3.17016603 C19.0025679,4.16936252 11.649698,9.19380527 10.8594693,9.98398267 C9.71351024,11.1299873 9.71351024,12.9945532 10.8594693,14.1405578 C11.4324488,14.7134866 12.1851549,15 12.9377631,15 C13.6903712,15 14.4430283,14.7134866 15.0160569,14.1405578 C15.8062366,13.3503314 20.8306455,5.99748356 21.8298939,4.53155778 C22.0949527,4.14246974 22.0459185,3.61989752 21.7130643,3.28694632 Z M13.6304624,12.7550164 C13.248525,13.1370506 12.6269522,13.1370506 12.2450148,12.7550164 C11.8630285,12.3730802 11.8629795,11.7517052 12.2448189,11.36972 C12.5518579,11.0663067 14.6394589,9.57745597 17.2079472,7.79209885 C15.4226338,10.3605795 13.9337785,12.4480763 13.6304624,12.7550164 Z" id="Shape"></path>
                    <path d="M4.45076111,17.1510144 L3.25930388,17.7428557 C2.38749884,16.1584861 1.93026688,14.3900875 1.93026688,12.5798217 C1.93026688,11.2534859 2.17044033,9.98316957 2.60875568,8.81162454 L3.97398519,9.47845337 C4.1086213,9.54420259 4.2507372,9.57535731 4.39072981,9.57535731 C4.75038678,9.57535731 5.09566327,9.36970671 5.26161796,9.01737342 C5.49209183,8.52798887 5.28941381,7.94091415 4.80877735,7.70617271 L3.460872,7.04779595 C5.13619887,4.26549321 8.03483238,2.32569453 11.3886228,2.01070759 L11.3886228,3.48888578 C11.3886228,4.03168543 11.8207131,4.47168434 12.3537563,4.47168434 C12.8867995,4.47168434 13.3188897,4.03168543 13.3188897,3.48888578 L13.3188897,2.00997049 C14.4687497,2.116555 15.5813555,2.41473608 16.6375493,2.90023857 C17.1232527,3.12357955 17.6949495,2.90348181 17.9142761,2.40888843 C18.1336026,1.91414763 17.9175575,1.33208518 17.4317093,1.1087442 C15.8312286,0.373070336 14.1227493,0 12.353708,0 C9.05391678,0 5.95164012,1.30849801 3.61828526,3.68451183 C1.28502692,6.06057479 0,9.21963337 0,12.5798217 C0,15.0628623 0.723753565,17.4777949 2.09303663,19.5633426 C2.27747363,19.8441773 2.58240754,20 2.89597939,20 C3.0385296,20 3.18291357,19.9678133 3.31856307,19.9004425 L5.29708662,18.9176439 C5.77617886,18.6796593 5.97509286,18.0913069 5.7413858,17.6034457 C5.50767873,17.1156336 4.92985334,16.913128 4.45076111,17.1510144 Z" id="Path"></path>
                    <path d="M23.8903447,7.57126306 C23.6668792,7.08295141 23.0844626,6.86564375 22.5891897,7.08620132 C22.0941134,7.30666188 21.8739429,7.88121751 22.0974575,8.36952916 C22.7181839,9.72566477 23.0328748,11.1743987 23.0328748,12.6754707 C23.0328748,14.4650575 22.5653874,16.2134625 21.6743289,17.7791933 L20.4066642,17.18378 C19.9163091,16.9534727 19.3293681,17.1587994 19.0957719,17.6425999 C18.862225,18.1263035 19.0704944,18.7052247 19.5609479,18.9355805 L21.6264294,19.905704 C21.7623086,19.9694896 21.9063513,20 22.0487712,20 C22.368429,20 22.6792348,19.8459929 22.8669477,19.5689741 C24.2624264,17.5102751 25,15.1264877 25,12.6754707 C25,10.8972829 24.6266396,9.17997032 23.8903447,7.57126306 Z" id="Path"></path>
                </g>
            </g>
        </g>
    </g>
</svg>